<mxfile host="65bd71144e">
    <diagram id="dlIYrn-ZFZ37VqLvUbGI" name="Page-2">
        <mxGraphModel dx="283" dy="827" grid="1" gridSize="10" guides="1" tooltips="1" connect="1" arrows="1" fold="1" page="1" pageScale="1" pageWidth="850" pageHeight="1100" math="0" shadow="0">
            <root>
                <mxCell id="0"/>
                <mxCell id="1" parent="0"/>
                <mxCell id="e2HuaR21h6FyRCA3LLWs-24" value="" style="rounded=0;whiteSpace=wrap;html=1;fillColor=#bac8d3;strokeColor=none;" parent="1" vertex="1">
                    <mxGeometry x="330" y="330" width="380" height="300" as="geometry"/>
                </mxCell>
                <mxCell id="e2HuaR21h6FyRCA3LLWs-5" style="edgeStyle=none;html=1;fillColor=#d5e8d4;strokeColor=#00CC00;strokeWidth=2;exitX=1;exitY=0.25;exitDx=0;exitDy=0;entryX=0;entryY=0.25;entryDx=0;entryDy=0;" parent="1" source="e2HuaR21h6FyRCA3LLWs-1" target="e2HuaR21h6FyRCA3LLWs-2" edge="1">
                    <mxGeometry relative="1" as="geometry"/>
                </mxCell>
                <mxCell id="e2HuaR21h6FyRCA3LLWs-6" style="edgeStyle=none;html=1;fillColor=#60a917;strokeColor=#00CC00;strokeWidth=2;exitX=0.25;exitY=1;exitDx=0;exitDy=0;entryX=0.25;entryY=0;entryDx=0;entryDy=0;" parent="1" source="e2HuaR21h6FyRCA3LLWs-1" target="e2HuaR21h6FyRCA3LLWs-4" edge="1">
                    <mxGeometry relative="1" as="geometry"/>
                </mxCell>
                <mxCell id="e2HuaR21h6FyRCA3LLWs-7" style="edgeStyle=none;html=1;fillColor=#60a917;strokeColor=#00CC00;strokeWidth=2;exitX=0.75;exitY=1;exitDx=0;exitDy=0;entryX=0;entryY=0.25;entryDx=0;entryDy=0;" parent="1" source="e2HuaR21h6FyRCA3LLWs-1" target="e2HuaR21h6FyRCA3LLWs-3" edge="1">
                    <mxGeometry relative="1" as="geometry"/>
                </mxCell>
                <mxCell id="e2HuaR21h6FyRCA3LLWs-9" style="edgeStyle=none;html=1;fillColor=#60a917;strokeColor=#00CC00;strokeWidth=2;" parent="1" source="e2HuaR21h6FyRCA3LLWs-1" target="e2HuaR21h6FyRCA3LLWs-1" edge="1">
                    <mxGeometry relative="1" as="geometry">
                        <mxPoint x="300" y="360" as="targetPoint"/>
                        <Array as="points">
                            <mxPoint x="400" y="340"/>
                            <mxPoint x="340" y="340"/>
                            <mxPoint x="340" y="380"/>
                        </Array>
                    </mxGeometry>
                </mxCell>
                <mxCell id="e2HuaR21h6FyRCA3LLWs-1" value="external" style="rounded=1;whiteSpace=wrap;html=1;fillColor=#647687;fontColor=#ffffff;strokeColor=#314354;fontStyle=1" parent="1" vertex="1">
                    <mxGeometry x="360" y="360" width="80" height="40" as="geometry"/>
                </mxCell>
                <mxCell id="e2HuaR21h6FyRCA3LLWs-12" style="edgeStyle=none;html=1;exitX=0;exitY=0.5;exitDx=0;exitDy=0;fillColor=#60a917;strokeColor=#00CC00;strokeWidth=2;" parent="1" source="e2HuaR21h6FyRCA3LLWs-2" edge="1">
                    <mxGeometry relative="1" as="geometry">
                        <mxPoint x="440" y="380" as="targetPoint"/>
                    </mxGeometry>
                </mxCell>
                <mxCell id="e2HuaR21h6FyRCA3LLWs-2" value="common" style="rounded=1;whiteSpace=wrap;html=1;fillColor=#647687;fontColor=#ffffff;strokeColor=#314354;fontStyle=1" parent="1" vertex="1">
                    <mxGeometry x="600" y="360" width="80" height="40" as="geometry"/>
                </mxCell>
                <mxCell id="e2HuaR21h6FyRCA3LLWs-13" style="edgeStyle=none;html=1;entryX=1;entryY=0.75;entryDx=0;entryDy=0;exitX=0.25;exitY=0;exitDx=0;exitDy=0;fillColor=#60a917;strokeColor=#00CC00;strokeWidth=2;" parent="1" source="e2HuaR21h6FyRCA3LLWs-3" target="e2HuaR21h6FyRCA3LLWs-1" edge="1">
                    <mxGeometry relative="1" as="geometry"/>
                </mxCell>
                <mxCell id="e2HuaR21h6FyRCA3LLWs-3" value="service" style="rounded=1;whiteSpace=wrap;html=1;fillColor=#647687;fontColor=#ffffff;strokeColor=#314354;fontStyle=1" parent="1" vertex="1">
                    <mxGeometry x="600" y="560" width="80" height="40" as="geometry"/>
                </mxCell>
                <mxCell id="e2HuaR21h6FyRCA3LLWs-11" style="edgeStyle=none;html=1;entryX=0.5;entryY=1;entryDx=0;entryDy=0;exitX=0.5;exitY=0;exitDx=0;exitDy=0;fillColor=#60a917;strokeColor=#00CC00;strokeWidth=2;" parent="1" source="e2HuaR21h6FyRCA3LLWs-4" target="e2HuaR21h6FyRCA3LLWs-1" edge="1">
                    <mxGeometry relative="1" as="geometry"/>
                </mxCell>
                <mxCell id="e2HuaR21h6FyRCA3LLWs-14" style="edgeStyle=none;html=1;exitX=1;exitY=0.75;exitDx=0;exitDy=0;entryX=0;entryY=0.75;entryDx=0;entryDy=0;fillColor=#60a917;strokeColor=#00CC00;strokeWidth=2;" parent="1" source="e2HuaR21h6FyRCA3LLWs-4" target="e2HuaR21h6FyRCA3LLWs-3" edge="1">
                    <mxGeometry relative="1" as="geometry"/>
                </mxCell>
                <mxCell id="e2HuaR21h6FyRCA3LLWs-4" value="utility" style="rounded=1;whiteSpace=wrap;html=1;fillColor=#647687;fontColor=#ffffff;strokeColor=#314354;fontStyle=1" parent="1" vertex="1">
                    <mxGeometry x="360" y="560" width="80" height="40" as="geometry"/>
                </mxCell>
                <mxCell id="e2HuaR21h6FyRCA3LLWs-15" style="edgeStyle=none;html=1;exitX=1;exitY=0.25;exitDx=0;exitDy=0;entryX=0.25;entryY=1;entryDx=0;entryDy=0;fillColor=#60a917;strokeColor=#00CC00;strokeWidth=2;" parent="1" source="e2HuaR21h6FyRCA3LLWs-4" target="e2HuaR21h6FyRCA3LLWs-2" edge="1">
                    <mxGeometry relative="1" as="geometry">
                        <mxPoint x="450" y="600" as="sourcePoint"/>
                        <mxPoint x="610" y="600" as="targetPoint"/>
                    </mxGeometry>
                </mxCell>
                <mxCell id="e2HuaR21h6FyRCA3LLWs-16" style="edgeStyle=none;html=1;exitX=0;exitY=0.5;exitDx=0;exitDy=0;fillColor=#e51400;strokeColor=#B20000;strokeWidth=2;entryX=1;entryY=0.5;entryDx=0;entryDy=0;" parent="1" source="e2HuaR21h6FyRCA3LLWs-3" target="e2HuaR21h6FyRCA3LLWs-4" edge="1">
                    <mxGeometry relative="1" as="geometry">
                        <mxPoint x="450" y="600" as="sourcePoint"/>
                        <mxPoint x="330" y="670" as="targetPoint"/>
                    </mxGeometry>
                </mxCell>
                <mxCell id="e2HuaR21h6FyRCA3LLWs-17" style="edgeStyle=none;html=1;exitX=0;exitY=0.75;exitDx=0;exitDy=0;fillColor=#e51400;strokeColor=#B20000;strokeWidth=2;entryX=0.75;entryY=0;entryDx=0;entryDy=0;" parent="1" source="e2HuaR21h6FyRCA3LLWs-2" target="e2HuaR21h6FyRCA3LLWs-4" edge="1">
                    <mxGeometry relative="1" as="geometry">
                        <mxPoint x="610" y="590" as="sourcePoint"/>
                        <mxPoint x="450" y="590" as="targetPoint"/>
                    </mxGeometry>
                </mxCell>
                <mxCell id="e2HuaR21h6FyRCA3LLWs-19" style="edgeStyle=none;html=1;exitX=0;exitY=0.5;exitDx=0;exitDy=0;entryX=0.5;entryY=1;entryDx=0;entryDy=0;fillColor=#60a917;strokeColor=#00CC00;strokeWidth=2;" parent="1" source="e2HuaR21h6FyRCA3LLWs-4" target="e2HuaR21h6FyRCA3LLWs-4" edge="1">
                    <mxGeometry relative="1" as="geometry">
                        <mxPoint x="450" y="600" as="sourcePoint"/>
                        <mxPoint x="610" y="600" as="targetPoint"/>
                        <Array as="points">
                            <mxPoint x="340" y="580"/>
                            <mxPoint x="340" y="620"/>
                            <mxPoint x="400" y="620"/>
                        </Array>
                    </mxGeometry>
                </mxCell>
                <mxCell id="e2HuaR21h6FyRCA3LLWs-20" style="edgeStyle=none;html=1;exitX=0.75;exitY=0;exitDx=0;exitDy=0;entryX=0.75;entryY=1;entryDx=0;entryDy=0;fillColor=#60a917;strokeColor=#00CC00;strokeWidth=2;" parent="1" source="e2HuaR21h6FyRCA3LLWs-3" target="e2HuaR21h6FyRCA3LLWs-2" edge="1">
                    <mxGeometry relative="1" as="geometry">
                        <mxPoint x="450" y="600" as="sourcePoint"/>
                        <mxPoint x="610" y="600" as="targetPoint"/>
                    </mxGeometry>
                </mxCell>
                <mxCell id="e2HuaR21h6FyRCA3LLWs-21" style="edgeStyle=none;html=1;exitX=1;exitY=0.5;exitDx=0;exitDy=0;entryX=0.5;entryY=0;entryDx=0;entryDy=0;fillColor=#60a917;strokeColor=#00CC00;strokeWidth=2;" parent="1" source="e2HuaR21h6FyRCA3LLWs-2" target="e2HuaR21h6FyRCA3LLWs-2" edge="1">
                    <mxGeometry relative="1" as="geometry">
                        <mxPoint x="670" y="570" as="sourcePoint"/>
                        <mxPoint x="670" y="410" as="targetPoint"/>
                        <Array as="points">
                            <mxPoint x="700" y="380"/>
                            <mxPoint x="700" y="340"/>
                            <mxPoint x="640" y="340"/>
                        </Array>
                    </mxGeometry>
                </mxCell>
                <mxCell id="e2HuaR21h6FyRCA3LLWs-22" style="edgeStyle=none;html=1;exitX=0.5;exitY=1;exitDx=0;exitDy=0;fillColor=#e51400;strokeColor=#B20000;strokeWidth=2;entryX=0.5;entryY=0;entryDx=0;entryDy=0;" parent="1" source="e2HuaR21h6FyRCA3LLWs-2" target="e2HuaR21h6FyRCA3LLWs-3" edge="1">
                    <mxGeometry relative="1" as="geometry">
                        <mxPoint x="610" y="590" as="sourcePoint"/>
                        <mxPoint x="450" y="590" as="targetPoint"/>
                    </mxGeometry>
                </mxCell>
                <mxCell id="e2HuaR21h6FyRCA3LLWs-23" style="edgeStyle=none;html=1;exitX=0.5;exitY=1;exitDx=0;exitDy=0;fillColor=#e51400;strokeColor=#B20000;strokeWidth=2;entryX=1;entryY=0.5;entryDx=0;entryDy=0;" parent="1" source="e2HuaR21h6FyRCA3LLWs-3" target="e2HuaR21h6FyRCA3LLWs-3" edge="1">
                    <mxGeometry relative="1" as="geometry">
                        <mxPoint x="650" y="410" as="sourcePoint"/>
                        <mxPoint x="650" y="570" as="targetPoint"/>
                        <Array as="points">
                            <mxPoint x="640" y="620"/>
                            <mxPoint x="700" y="620"/>
                            <mxPoint x="700" y="580"/>
                        </Array>
                    </mxGeometry>
                </mxCell>
            </root>
        </mxGraphModel>
    </diagram>
</mxfile>